<?xml version="1.0" encoding="utf-8"?>
<svg version="1.1" xmlns:xlink="http://www.w3.org/1999/xlink" width="12px" height="12px" viewBox="416 789.5  12 12" xmlns="http://www.w3.org/2000/svg">
  <path d="M 422 789.5  C 425.36 789.5  428 792.14  428 795.5  C 428 798.86  425.36 801.5  422 801.5  C 418.64 801.5  416 798.86  416 795.5  C 416 792.14  418.64 789.5  422 789.5  Z " fill-rule="nonzero" fill="#ffffff" stroke="none" />
  <path d="M 422 790  C 425.08 790  427.5 792.42  427.5 795.5  C 427.5 798.58  425.08 801  422 801  C 418.92 801  416.5 798.58  416.5 795.5  C 416.5 792.42  418.92 790  422 790  Z " stroke-width="1" stroke="#aaaaaa" fill="none" />
  <path d="M 422 798.5  C 420.32 798.5  419 797.18  419 795.5  C 419 793.82  420.32 792.5  422 792.5  C 423.68 792.5  425 793.82  425 795.5  C 425 797.18  423.68 798.5  422 798.5  " fill-rule="nonzero" fill="#aaaaaa" stroke="none" />
</svg>