<?xml version="1.0" encoding="utf-8"?>
<svg version="1.1" xmlns:xlink="http://www.w3.org/1999/xlink" width="12px" height="12px" viewBox="507 789.5  12 12" xmlns="http://www.w3.org/2000/svg">
  <path d="M 513 789.5  C 516.36 789.5  519 792.14  519 795.5  C 519 798.86  516.36 801.5  513 801.5  C 509.64 801.5  507 798.86  507 795.5  C 507 792.14  509.64 789.5  513 789.5  Z " fill-rule="nonzero" fill="#f0f0f0" stroke="none" />
  <path d="M 513 790  C 516.08 790  518.5 792.42  518.5 795.5  C 518.5 798.58  516.08 801  513 801  C 509.92 801  507.5 798.58  507.5 795.5  C 507.5 792.42  509.92 790  513 790  Z " stroke-width="1" stroke="#aaaaaa" fill="none" />
  <path d="M 513 798.5  C 511.32 798.5  510 797.18  510 795.5  C 510 793.82  511.32 792.5  513 792.5  C 514.68 792.5  516 793.82  516 795.5  C 516 797.18  514.68 798.5  513 798.5  " fill-rule="nonzero" fill="#aaaaaa" stroke="none" />
</svg>