<?xml version="1.0" encoding="utf-8"?>
<svg version="1.1" xmlns:xlink="http://www.w3.org/1999/xlink" width="12px" height="12px" viewBox="380 250.5  12 12" xmlns="http://www.w3.org/2000/svg">
  <path d="M 386 250.5  C 389.36 250.5  392 253.14  392 256.5  C 392 259.86  389.36 262.5  386 262.5  C 382.64 262.5  380 259.86  380 256.5  C 380 253.14  382.64 250.5  386 250.5  Z " fill-rule="nonzero" fill="#ffffff" stroke="none" />
  <path d="M 386 251  C 389.08 251  391.5 253.42  391.5 256.5  C 391.5 259.58  389.08 262  386 262  C 382.92 262  380.5 259.58  380.5 256.5  C 380.5 253.42  382.92 251  386 251  Z " stroke-width="1" stroke="#aaaaaa" fill="none" />
  <path d="M 386 259.5  C 384.32 259.5  383 258.18  383 256.5  C 383 254.82  384.32 253.5  386 253.5  C 387.68 253.5  389 254.82  389 256.5  C 389 258.18  387.68 259.5  386 259.5  " fill-rule="nonzero" fill="#aaaaaa" stroke="none" />
</svg>