<?xml version="1.0" encoding="utf-8"?>
<svg version="1.1" xmlns:xlink="http://www.w3.org/1999/xlink" width="12px" height="12px" viewBox="471 250.5  12 12" xmlns="http://www.w3.org/2000/svg">
  <path d="M 477 250.5  C 480.36 250.5  483 253.14  483 256.5  C 483 259.86  480.36 262.5  477 262.5  C 473.64 262.5  471 259.86  471 256.5  C 471 253.14  473.64 250.5  477 250.5  Z " fill-rule="nonzero" fill="#ffffff" stroke="none" />
  <path d="M 477 251  C 480.08 251  482.5 253.42  482.5 256.5  C 482.5 259.58  480.08 262  477 262  C 473.92 262  471.5 259.58  471.5 256.5  C 471.5 253.42  473.92 251  477 251  Z " stroke-width="1" stroke="#aaaaaa" fill="none" />
  <path d="M 477 259.5  C 475.32 259.5  474 258.18  474 256.5  C 474 254.82  475.32 253.5  477 253.5  C 478.68 253.5  480 254.82  480 256.5  C 480 258.18  478.68 259.5  477 259.5  " fill-rule="nonzero" fill="#aaaaaa" stroke="none" />
</svg>