<?xml version="1.0" encoding="utf-8"?>
<svg version="1.1" xmlns:xlink="http://www.w3.org/1999/xlink" width="12px" height="12px" viewBox="543 762.5  12 12" xmlns="http://www.w3.org/2000/svg">
  <path d="M 549 762.5  C 552.36 762.5  555 765.14  555 768.5  C 555 771.86  552.36 774.5  549 774.5  C 545.64 774.5  543 771.86  543 768.5  C 543 765.14  545.64 762.5  549 762.5  Z " fill-rule="nonzero" fill="#ffffff" stroke="none" />
  <path d="M 549 763  C 552.08 763  554.5 765.42  554.5 768.5  C 554.5 771.58  552.08 774  549 774  C 545.92 774  543.5 771.58  543.5 768.5  C 543.5 765.42  545.92 763  549 763  Z " stroke-width="1" stroke="#aaaaaa" fill="none" />
  <path d="M 549 771.5  C 547.32 771.5  546 770.18  546 768.5  C 546 766.82  547.32 765.5  549 765.5  C 550.68 765.5  552 766.82  552 768.5  C 552 770.18  550.68 771.5  549 771.5  " fill-rule="nonzero" fill="#aaaaaa" stroke="none" />
</svg>