<?xml version="1.0" encoding="utf-8"?>
<svg version="1.1" xmlns:xlink="http://www.w3.org/1999/xlink" width="12px" height="12px" viewBox="1811 1262.5  12 12" xmlns="http://www.w3.org/2000/svg">
  <path d="M 1817 1262.5  C 1820.36 1262.5  1823 1265.14  1823 1268.5  C 1823 1271.86  1820.36 1274.5  1817 1274.5  C 1813.64 1274.5  1811 1271.86  1811 1268.5  C 1811 1265.14  1813.64 1262.5  1817 1262.5  Z " fill-rule="nonzero" fill="#ffffff" stroke="none" />
  <path d="M 1817 1263  C 1820.08 1263  1822.5 1265.42  1822.5 1268.5  C 1822.5 1271.58  1820.08 1274  1817 1274  C 1813.92 1274  1811.5 1271.58  1811.5 1268.5  C 1811.5 1265.42  1813.92 1263  1817 1263  Z " stroke-width="1" stroke="#aaaaaa" fill="none" />
  <path d="M 1817 1271.5  C 1815.32 1271.5  1814 1270.18  1814 1268.5  C 1814 1266.82  1815.32 1265.5  1817 1265.5  C 1818.68 1265.5  1820 1266.82  1820 1268.5  C 1820 1270.18  1818.68 1271.5  1817 1271.5  " fill-rule="nonzero" fill="#aaaaaa" stroke="none" />
</svg>