<?xml version="1.0" encoding="utf-8"?>
<svg version="1.1" xmlns:xlink="http://www.w3.org/1999/xlink" width="12px" height="12px" viewBox="1888 1661.5  12 12" xmlns="http://www.w3.org/2000/svg">
  <path d="M 1894 1661.5  C 1897.36 1661.5  1900 1664.14  1900 1667.5  C 1900 1670.86  1897.36 1673.5  1894 1673.5  C 1890.64 1673.5  1888 1670.86  1888 1667.5  C 1888 1664.14  1890.64 1661.5  1894 1661.5  Z " fill-rule="nonzero" fill="#ffffff" stroke="none" />
  <path d="M 1894 1662  C 1897.08 1662  1899.5 1664.42  1899.5 1667.5  C 1899.5 1670.58  1897.08 1673  1894 1673  C 1890.92 1673  1888.5 1670.58  1888.5 1667.5  C 1888.5 1664.42  1890.92 1662  1894 1662  Z " stroke-width="1" stroke="#aaaaaa" fill="none" />
  <path d="M 1894 1670.5  C 1892.32 1670.5  1891 1669.18  1891 1667.5  C 1891 1665.82  1892.32 1664.5  1894 1664.5  C 1895.68 1664.5  1897 1665.82  1897 1667.5  C 1897 1669.18  1895.68 1670.5  1894 1670.5  " fill-rule="nonzero" fill="#aaaaaa" stroke="none" />
</svg>