<?xml version="1.0" encoding="utf-8"?>
<svg version="1.1" xmlns:xlink="http://www.w3.org/1999/xlink" width="12px" height="12px" viewBox="1811 1661.5  12 12" xmlns="http://www.w3.org/2000/svg">
  <path d="M 1817 1661.5  C 1820.36 1661.5  1823 1664.14  1823 1667.5  C 1823 1670.86  1820.36 1673.5  1817 1673.5  C 1813.64 1673.5  1811 1670.86  1811 1667.5  C 1811 1664.14  1813.64 1661.5  1817 1661.5  Z " fill-rule="nonzero" fill="#ffffff" stroke="none" />
  <path d="M 1817 1662  C 1820.08 1662  1822.5 1664.42  1822.5 1667.5  C 1822.5 1670.58  1820.08 1673  1817 1673  C 1813.92 1673  1811.5 1670.58  1811.5 1667.5  C 1811.5 1664.42  1813.92 1662  1817 1662  Z " stroke-width="1" stroke="#aaaaaa" fill="none" />
  <path d="M 1817 1670.5  C 1815.32 1670.5  1814 1669.18  1814 1667.5  C 1814 1665.82  1815.32 1664.5  1817 1664.5  C 1818.68 1664.5  1820 1665.82  1820 1667.5  C 1820 1669.18  1818.68 1670.5  1817 1670.5  " fill-rule="nonzero" fill="#aaaaaa" stroke="none" />
</svg>