<?xml version="1.0" encoding="utf-8"?>
<svg version="1.1" xmlns:xlink="http://www.w3.org/1999/xlink" width="12px" height="12px" viewBox="1811 2055.5  12 12" xmlns="http://www.w3.org/2000/svg">
  <path d="M 1817 2055.5  C 1820.36 2055.5  1823 2058.14  1823 2061.5  C 1823 2064.86  1820.36 2067.5  1817 2067.5  C 1813.64 2067.5  1811 2064.86  1811 2061.5  C 1811 2058.14  1813.64 2055.5  1817 2055.5  Z " fill-rule="nonzero" fill="#f0f0f0" stroke="none" />
  <path d="M 1817 2056  C 1820.08 2056  1822.5 2058.42  1822.5 2061.5  C 1822.5 2064.58  1820.08 2067  1817 2067  C 1813.92 2067  1811.5 2064.58  1811.5 2061.5  C 1811.5 2058.42  1813.92 2056  1817 2056  Z " stroke-width="1" stroke="#aaaaaa" fill="none" />
  <path d="M 1817 2064.5  C 1815.32 2064.5  1814 2063.18  1814 2061.5  C 1814 2059.82  1815.32 2058.5  1817 2058.5  C 1818.68 2058.5  1820 2059.82  1820 2061.5  C 1820 2063.18  1818.68 2064.5  1817 2064.5  " fill-rule="nonzero" fill="#aaaaaa" stroke="none" />
</svg>