<?xml version="1.0" encoding="utf-8"?>
<svg version="1.1" xmlns:xlink="http://www.w3.org/1999/xlink" width="12px" height="12px" viewBox="1811 2463.5  12 12" xmlns="http://www.w3.org/2000/svg">
  <path d="M 1817 2463.5  C 1820.36 2463.5  1823 2466.14  1823 2469.5  C 1823 2472.86  1820.36 2475.5  1817 2475.5  C 1813.64 2475.5  1811 2472.86  1811 2469.5  C 1811 2466.14  1813.64 2463.5  1817 2463.5  Z " fill-rule="nonzero" fill="#ffffff" stroke="none" />
  <path d="M 1817 2464  C 1820.08 2464  1822.5 2466.42  1822.5 2469.5  C 1822.5 2472.58  1820.08 2475  1817 2475  C 1813.92 2475  1811.5 2472.58  1811.5 2469.5  C 1811.5 2466.42  1813.92 2464  1817 2464  Z " stroke-width="1" stroke="#aaaaaa" fill="none" />
  <path d="M 1817 2472.5  C 1815.32 2472.5  1814 2471.18  1814 2469.5  C 1814 2467.82  1815.32 2466.5  1817 2466.5  C 1818.68 2466.5  1820 2467.82  1820 2469.5  C 1820 2471.18  1818.68 2472.5  1817 2472.5  " fill-rule="nonzero" fill="#aaaaaa" stroke="none" />
</svg>