<?xml version="1.0" encoding="utf-8"?>
<svg version="1.1" xmlns:xlink="http://www.w3.org/1999/xlink" width="12px" height="12px" viewBox="1888 2864.5  12 12" xmlns="http://www.w3.org/2000/svg">
  <path d="M 1894 2864.5  C 1897.36 2864.5  1900 2867.14  1900 2870.5  C 1900 2873.86  1897.36 2876.5  1894 2876.5  C 1890.64 2876.5  1888 2873.86  1888 2870.5  C 1888 2867.14  1890.64 2864.5  1894 2864.5  Z " fill-rule="nonzero" fill="#f0f0f0" stroke="none" />
  <path d="M 1894 2865  C 1897.08 2865  1899.5 2867.42  1899.5 2870.5  C 1899.5 2873.58  1897.08 2876  1894 2876  C 1890.92 2876  1888.5 2873.58  1888.5 2870.5  C 1888.5 2867.42  1890.92 2865  1894 2865  Z " stroke-width="1" stroke="#aaaaaa" fill="none" />
  <path d="M 1894 2873.5  C 1892.32 2873.5  1891 2872.18  1891 2870.5  C 1891 2868.82  1892.32 2867.5  1894 2867.5  C 1895.68 2867.5  1897 2868.82  1897 2870.5  C 1897 2872.18  1895.68 2873.5  1894 2873.5  " fill-rule="nonzero" fill="#aaaaaa" stroke="none" />
</svg>