<?xml version="1.0" encoding="utf-8"?>
<svg version="1.1" xmlns:xlink="http://www.w3.org/1999/xlink" width="12px" height="12px" viewBox="1811 3268.5  12 12" xmlns="http://www.w3.org/2000/svg">
  <path d="M 1817 3268.5  C 1820.36 3268.5  1823 3271.14  1823 3274.5  C 1823 3277.86  1820.36 3280.5  1817 3280.5  C 1813.64 3280.5  1811 3277.86  1811 3274.5  C 1811 3271.14  1813.64 3268.5  1817 3268.5  Z " fill-rule="nonzero" fill="#f0f0f0" stroke="none" />
  <path d="M 1817 3269  C 1820.08 3269  1822.5 3271.42  1822.5 3274.5  C 1822.5 3277.58  1820.08 3280  1817 3280  C 1813.92 3280  1811.5 3277.58  1811.5 3274.5  C 1811.5 3271.42  1813.92 3269  1817 3269  Z " stroke-width="1" stroke="#aaaaaa" fill="none" />
  <path d="M 1817 3277.5  C 1815.32 3277.5  1814 3276.18  1814 3274.5  C 1814 3272.82  1815.32 3271.5  1817 3271.5  C 1818.68 3271.5  1820 3272.82  1820 3274.5  C 1820 3276.18  1818.68 3277.5  1817 3277.5  " fill-rule="nonzero" fill="#aaaaaa" stroke="none" />
</svg>