<?xml version="1.0" encoding="utf-8"?>
<svg version="1.1" xmlns:xlink="http://www.w3.org/1999/xlink" width="12px" height="12px" viewBox="2649 1141.5  12 12" xmlns="http://www.w3.org/2000/svg">
  <path d="M 2655 1141.5  C 2658.36 1141.5  2661 1144.14  2661 1147.5  C 2661 1150.86  2658.36 1153.5  2655 1153.5  C 2651.64 1153.5  2649 1150.86  2649 1147.5  C 2649 1144.14  2651.64 1141.5  2655 1141.5  Z " fill-rule="nonzero" fill="#f0f0f0" stroke="none" />
  <path d="M 2655 1142  C 2658.08 1142  2660.5 1144.42  2660.5 1147.5  C 2660.5 1150.58  2658.08 1153  2655 1153  C 2651.92 1153  2649.5 1150.58  2649.5 1147.5  C 2649.5 1144.42  2651.92 1142  2655 1142  Z " stroke-width="1" stroke="#aaaaaa" fill="none" />
  <path d="M 2655 1150.5  C 2653.32 1150.5  2652 1149.18  2652 1147.5  C 2652 1145.82  2653.32 1144.5  2655 1144.5  C 2656.68 1144.5  2658 1145.82  2658 1147.5  C 2658 1149.18  2656.68 1150.5  2655 1150.5  " fill-rule="nonzero" fill="#aaaaaa" stroke="none" />
</svg>