<?xml version="1.0" encoding="utf-8"?>
<svg version="1.1" xmlns:xlink="http://www.w3.org/1999/xlink" width="12px" height="12px" viewBox="2726 1141.5  12 12" xmlns="http://www.w3.org/2000/svg">
  <path d="M 2732 1141.5  C 2735.36 1141.5  2738 1144.14  2738 1147.5  C 2738 1150.86  2735.36 1153.5  2732 1153.5  C 2728.64 1153.5  2726 1150.86  2726 1147.5  C 2726 1144.14  2728.64 1141.5  2732 1141.5  Z " fill-rule="nonzero" fill="#f0f0f0" stroke="none" />
  <path d="M 2732 1142  C 2735.08 1142  2737.5 1144.42  2737.5 1147.5  C 2737.5 1150.58  2735.08 1153  2732 1153  C 2728.92 1153  2726.5 1150.58  2726.5 1147.5  C 2726.5 1144.42  2728.92 1142  2732 1142  Z " stroke-width="1" stroke="#aaaaaa" fill="none" />
  <path d="M 2732 1150.5  C 2730.32 1150.5  2729 1149.18  2729 1147.5  C 2729 1145.82  2730.32 1144.5  2732 1144.5  C 2733.68 1144.5  2735 1145.82  2735 1147.5  C 2735 1149.18  2733.68 1150.5  2732 1150.5  " fill-rule="nonzero" fill="#aaaaaa" stroke="none" />
</svg>