<?xml version="1.0" encoding="utf-8"?>
<svg version="1.1" xmlns:xlink="http://www.w3.org/1999/xlink" width="12px" height="12px" viewBox="2650 1277.5  12 12" xmlns="http://www.w3.org/2000/svg">
  <path d="M 2656 1277.5  C 2659.36 1277.5  2662 1280.14  2662 1283.5  C 2662 1286.86  2659.36 1289.5  2656 1289.5  C 2652.64 1289.5  2650 1286.86  2650 1283.5  C 2650 1280.14  2652.64 1277.5  2656 1277.5  Z " fill-rule="nonzero" fill="#ffffff" stroke="none" />
  <path d="M 2656 1278  C 2659.08 1278  2661.5 1280.42  2661.5 1283.5  C 2661.5 1286.58  2659.08 1289  2656 1289  C 2652.92 1289  2650.5 1286.58  2650.5 1283.5  C 2650.5 1280.42  2652.92 1278  2656 1278  Z " stroke-width="1" stroke="#aaaaaa" fill="none" />
  <path d="M 2656 1286.5  C 2654.32 1286.5  2653 1285.18  2653 1283.5  C 2653 1281.82  2654.32 1280.5  2656 1280.5  C 2657.68 1280.5  2659 1281.82  2659 1283.5  C 2659 1285.18  2657.68 1286.5  2656 1286.5  " fill-rule="nonzero" fill="#aaaaaa" stroke="none" />
</svg>