<?xml version="1.0" encoding="utf-8"?>
<svg version="1.1" xmlns:xlink="http://www.w3.org/1999/xlink" width="12px" height="12px" viewBox="2727 1277.5  12 12" xmlns="http://www.w3.org/2000/svg">
  <path d="M 2733 1277.5  C 2736.36 1277.5  2739 1280.14  2739 1283.5  C 2739 1286.86  2736.36 1289.5  2733 1289.5  C 2729.64 1289.5  2727 1286.86  2727 1283.5  C 2727 1280.14  2729.64 1277.5  2733 1277.5  Z " fill-rule="nonzero" fill="#ffffff" stroke="none" />
  <path d="M 2733 1278  C 2736.08 1278  2738.5 1280.42  2738.5 1283.5  C 2738.5 1286.58  2736.08 1289  2733 1289  C 2729.92 1289  2727.5 1286.58  2727.5 1283.5  C 2727.5 1280.42  2729.92 1278  2733 1278  Z " stroke-width="1" stroke="#aaaaaa" fill="none" />
  <path d="M 2733 1286.5  C 2731.32 1286.5  2730 1285.18  2730 1283.5  C 2730 1281.82  2731.32 1280.5  2733 1280.5  C 2734.68 1280.5  2736 1281.82  2736 1283.5  C 2736 1285.18  2734.68 1286.5  2733 1286.5  " fill-rule="nonzero" fill="#aaaaaa" stroke="none" />
</svg>