<?xml version="1.0" encoding="utf-8"?>
<svg version="1.1" xmlns:xlink="http://www.w3.org/1999/xlink" width="40px" height="50px" xmlns="http://www.w3.org/2000/svg">
  <defs>
    <filter x="1485px" y="1361px" width="40px" height="50px" filterUnits="userSpaceOnUse" id="filter53">
      <feOffset dx="1" dy="1" in="SourceAlpha" result="shadowOffsetInner" />
      <feGaussianBlur stdDeviation="2.5" in="shadowOffsetInner" result="shadowGaussian" />
      <feComposite in2="shadowGaussian" operator="atop" in="SourceAlpha" result="shadowComposite" />
      <feColorMatrix type="matrix" values="0 0 0 0 0  0 0 0 0 0  0 0 0 0 0  0 0 0 0.698039215686274 0  " in="shadowComposite" />
    </filter>
    <g id="widget54">
      <path d="M 1504 1404.03692846835  C 1498.2 1394.40734059591  1489.5 1388.62958787244  1489.5 1379  C 1489.5 1373.98571428571  1492.4 1365.5  1504 1365.5  C 1515.6 1365.5  1518.5 1373.98571428571  1518.5 1379  C 1518.5 1388.62958787244  1509.8 1394.40734059591  1504 1404.03692846835  Z " fill-rule="nonzero" fill="#009dd9" stroke="none" />
      <path d="M 1504 1405  C 1498 1395  1489 1389  1489 1379  C 1489 1373.8  1492 1365  1504 1365  C 1516 1365  1519 1373.8  1519 1379  C 1519 1389  1510 1395  1504 1405  Z M 1504 1403.07385693671  C 1509.6 1393.81468119182  1518 1388.25917574489  1518 1379  C 1518 1374.17142857143  1515.2 1366  1504 1366  C 1492.8 1366  1490 1374.17142857143  1490 1379  C 1490 1388.25917574489  1498.4 1393.81468119182  1504 1403.07385693671  Z " fill-rule="nonzero" fill="#ffffff" stroke="none" />
    </g>
  </defs>
  <g transform="matrix(1 0 0 1 -1485 -1361 )">
    <use xlink:href="#widget54" filter="url(#filter53)" />
    <use xlink:href="#widget54" />
  </g>
</svg>