<?xml version="1.0" encoding="utf-8"?>
<svg version="1.1" xmlns:xlink="http://www.w3.org/1999/xlink" width="145px" height="60px" xmlns="http://www.w3.org/2000/svg">
  <defs>
    <mask fill="white" id="clip6">
      <path d="M 0 55  L 0 5  C 0 2.20000000000005  1.77222222222221 0  4.02777777777778 0  L 140.972222222222 0  C 143.227777777778 0  145 2.20000000000005  145 5  L 145 46.0877192982443  L 145 55  C 145 57.8  143.227777777778 60  140.972222222222 60  L 4.02777777777778 60  C 1.77222222222221 60  0 57.8  0 55  Z " fill-rule="evenodd" />
    </mask>
  </defs>
  <g transform="matrix(1 0 0 1 -37 -917 )">
    <path d="M 0 55  L 0 5  C 0 2.20000000000005  1.77222222222221 0  4.02777777777778 0  L 140.972222222222 0  C 143.227777777778 0  145 2.20000000000005  145 5  L 145 46.0877192982443  L 145 55  C 145 57.8  143.227777777778 60  140.972222222222 60  L 4.02777777777778 60  C 1.77222222222221 60  0 57.8  0 55  Z " fill-rule="nonzero" fill="#ffffff" stroke="none" fill-opacity="0.427450980392157" transform="matrix(1 0 0 1 37 917 )" />
    <path d="M 0 55  L 0 5  C 0 2.20000000000005  1.77222222222221 0  4.02777777777778 0  L 140.972222222222 0  C 143.227777777778 0  145 2.20000000000005  145 5  L 145 46.0877192982443  L 145 55  C 145 57.8  143.227777777778 60  140.972222222222 60  L 4.02777777777778 60  C 1.77222222222221 60  0 57.8  0 55  Z " stroke-width="2" stroke="#02a7f0" fill="none" transform="matrix(1 0 0 1 37 917 )" mask="url(#clip6)" />
  </g>
</svg>