<?xml version="1.0" encoding="utf-8"?>
<svg version="1.1" xmlns:xlink="http://www.w3.org/1999/xlink" width="12px" height="12px" viewBox="264 753.5  12 12" xmlns="http://www.w3.org/2000/svg">
  <path d="M 270 753.5  C 273.36 753.5  276 756.14  276 759.5  C 276 762.86  273.36 765.5  270 765.5  C 266.64 765.5  264 762.86  264 759.5  C 264 756.14  266.64 753.5  270 753.5  Z " fill-rule="nonzero" fill="#ffffff" stroke="none" />
  <path d="M 270 754  C 273.08 754  275.5 756.42  275.5 759.5  C 275.5 762.58  273.08 765  270 765  C 266.92 765  264.5 762.58  264.5 759.5  C 264.5 756.42  266.92 754  270 754  Z " stroke-width="1" stroke="#aaaaaa" fill="none" />
  <path d="M 270 762.5  C 268.32 762.5  267 761.18  267 759.5  C 267 757.82  268.32 756.5  270 756.5  C 271.68 756.5  273 757.82  273 759.5  C 273 761.18  271.68 762.5  270 762.5  " fill-rule="nonzero" fill="#aaaaaa" stroke="none" />
</svg>