<?xml version="1.0" encoding="utf-8"?>
<svg version="1.1" xmlns:xlink="http://www.w3.org/1999/xlink" width="12px" height="12px" viewBox="264 842.5  12 12" xmlns="http://www.w3.org/2000/svg">
  <path d="M 270 842.5  C 273.36 842.5  276 845.14  276 848.5  C 276 851.86  273.36 854.5  270 854.5  C 266.64 854.5  264 851.86  264 848.5  C 264 845.14  266.64 842.5  270 842.5  Z " fill-rule="nonzero" fill="#f0f0f0" stroke="none" />
  <path d="M 270 843  C 273.08 843  275.5 845.42  275.5 848.5  C 275.5 851.58  273.08 854  270 854  C 266.92 854  264.5 851.58  264.5 848.5  C 264.5 845.42  266.92 843  270 843  Z " stroke-width="1" stroke="#aaaaaa" fill="none" />
  <path d="M 270 851.5  C 268.32 851.5  267 850.18  267 848.5  C 267 846.82  268.32 845.5  270 845.5  C 271.68 845.5  273 846.82  273 848.5  C 273 850.18  271.68 851.5  270 851.5  " fill-rule="nonzero" fill="#aaaaaa" stroke="none" />
</svg>