<?xml version="1.0" encoding="utf-8"?>
<svg version="1.1" xmlns:xlink="http://www.w3.org/1999/xlink" width="12px" height="12px" viewBox="268 1178.5  12 12" xmlns="http://www.w3.org/2000/svg">
  <path d="M 274 1178.5  C 277.36 1178.5  280 1181.14  280 1184.5  C 280 1187.86  277.36 1190.5  274 1190.5  C 270.64 1190.5  268 1187.86  268 1184.5  C 268 1181.14  270.64 1178.5  274 1178.5  Z " fill-rule="nonzero" fill="#f0f0f0" stroke="none" />
  <path d="M 274 1179  C 277.08 1179  279.5 1181.42  279.5 1184.5  C 279.5 1187.58  277.08 1190  274 1190  C 270.92 1190  268.5 1187.58  268.5 1184.5  C 268.5 1181.42  270.92 1179  274 1179  Z " stroke-width="1" stroke="#aaaaaa" fill="none" />
  <path d="M 274 1187.5  C 272.32 1187.5  271 1186.18  271 1184.5  C 271 1182.82  272.32 1181.5  274 1181.5  C 275.68 1181.5  277 1182.82  277 1184.5  C 277 1186.18  275.68 1187.5  274 1187.5  " fill-rule="nonzero" fill="#aaaaaa" stroke="none" />
</svg>