<?xml version="1.0" encoding="utf-8"?>
<svg version="1.1" xmlns:xlink="http://www.w3.org/1999/xlink" width="12px" height="12px" viewBox="268 1273.5  12 12" xmlns="http://www.w3.org/2000/svg">
  <path d="M 274 1273.5  C 277.36 1273.5  280 1276.14  280 1279.5  C 280 1282.86  277.36 1285.5  274 1285.5  C 270.64 1285.5  268 1282.86  268 1279.5  C 268 1276.14  270.64 1273.5  274 1273.5  Z " fill-rule="nonzero" fill="#f0f0f0" stroke="none" />
  <path d="M 274 1274  C 277.08 1274  279.5 1276.42  279.5 1279.5  C 279.5 1282.58  277.08 1285  274 1285  C 270.92 1285  268.5 1282.58  268.5 1279.5  C 268.5 1276.42  270.92 1274  274 1274  Z " stroke-width="1" stroke="#aaaaaa" fill="none" />
  <path d="M 274 1282.5  C 272.32 1282.5  271 1281.18  271 1279.5  C 271 1277.82  272.32 1276.5  274 1276.5  C 275.68 1276.5  277 1277.82  277 1279.5  C 277 1281.18  275.68 1282.5  274 1282.5  " fill-rule="nonzero" fill="#aaaaaa" stroke="none" />
</svg>