<?xml version="1.0" encoding="utf-8"?>
<svg version="1.1" xmlns:xlink="http://www.w3.org/1999/xlink" width="18px" height="18px" xmlns="http://www.w3.org/2000/svg">
  <g transform="matrix(1 0 0 1 -410 -501 )">
    <path d="M 419 501  C 424.04 501  428 504.96  428 510  C 428 515.04  424.04 519  419 519  C 413.96 519  410 515.04  410 510  C 410 504.96  413.96 501  419 501  Z " fill-rule="nonzero" fill="#ffff80" stroke="none" fill-opacity="0.6" />
    <path d="M 419 501.5  C 423.76 501.5  427.5 505.24  427.5 510  C 427.5 514.76  423.76 518.5  419 518.5  C 414.24 518.5  410.5 514.76  410.5 510  C 410.5 505.24  414.24 501.5  419 501.5  Z " stroke-width="1" stroke="#ffe900" fill="none" />
  </g>
</svg>