<?xml version="1.0" encoding="utf-8"?>
<svg version="1.1" xmlns:xlink="http://www.w3.org/1999/xlink" width="80px" height="30px" xmlns="http://www.w3.org/2000/svg">
  <g transform="matrix(1 0 0 1 -1974 -1239 )">
    <path d="M 1974.5 1244  A 4.5 4.5 0 0 1 1979 1239.5 L 2049 1239.5  A 4.5 4.5 0 0 1 2053.5 1244 L 2053.5 1264  A 4.5 4.5 0 0 1 2049 1268.5 L 1979 1268.5  A 4.5 4.5 0 0 1 1974.5 1264 L 1974.5 1244  Z " fill-rule="nonzero" fill="#ffffff" stroke="none" />
    <path d="M 1974.5 1244  A 4.5 4.5 0 0 1 1979 1239.5 L 2049 1239.5  A 4.5 4.5 0 0 1 2053.5 1244 L 2053.5 1264  A 4.5 4.5 0 0 1 2049 1268.5 L 1979 1268.5  A 4.5 4.5 0 0 1 1974.5 1264 L 1974.5 1244  Z " stroke-width="1" stroke="#e4e4e4" fill="none" />
  </g>
</svg>