<?xml version="1.0" encoding="utf-8"?>
<svg version="1.1" xmlns:xlink="http://www.w3.org/1999/xlink" width="80px" height="30px" xmlns="http://www.w3.org/2000/svg">
  <g transform="matrix(1 0 0 1 -1974 -1239 )">
    <path d="M 1975 1244  A 4 4 0 0 1 1979 1240 L 2049 1240  A 4 4 0 0 1 2053 1244 L 2053 1264  A 4 4 0 0 1 2049 1268 L 1979 1268  A 4 4 0 0 1 1975 1264 L 1975 1244  Z " fill-rule="nonzero" fill="#f0f7ff" stroke="none" />
    <path d="M 1974.5 1244  A 4.5 4.5 0 0 1 1979 1239.5 L 2049 1239.5  A 4.5 4.5 0 0 1 2053.5 1244 L 2053.5 1264  A 4.5 4.5 0 0 1 2049 1268.5 L 1979 1268.5  A 4.5 4.5 0 0 1 1974.5 1264 L 1974.5 1244  Z " stroke-width="1" stroke="#7abbff" fill="none" stroke-opacity="0.996078431372549" />
  </g>
</svg>