<?xml version="1.0" encoding="utf-8"?>
<svg version="1.1" xmlns:xlink="http://www.w3.org/1999/xlink" width="21px" height="17px" xmlns="http://www.w3.org/2000/svg">
  <g transform="matrix(1 0 0 1 -141 -312 )">
    <path d="M 20.8557763997745 1.99584973470834  C 20.8557763997745 0.946789286137852  20.0093527310287 0.0923863748961507  18.9755479440636 0  L 1.87894502707716 0  C 0.844498517648342 0.0923863748961507  0 0.948095708778269  0 1.99389009245497  L 0 4.1187927449447  L 20.8557763997745 4.1187927449447  L 20.8557763997745 1.99584973470834  Z M 0 7  L 0 14.9706242102455  C 0 16.0157653908947  0.844498517648342 16.8727811474173  1.87701987597971 16.8727811474173  L 18.9755479440636 16.8727811474173  C 20.0093527310287 16.8727811474173  20.8557763997745 16.0164185939222  20.8557763997745 14.9706242102455  L 20.8557763997745 7  L 0 7  Z M 17.0600250950155 13.9476922808253  L 17.0600250950155 12.1578880224392  L 18.6065611283301 12.1578880224392  L 18.6065611283301 13.9476922808253  L 17.0600250950155 13.9476922808253  Z M 15.0719883244895 13.9476922808253  L 15.0719883244895 12.1578880224392  L 16.618524357804 12.1578880224392  L 16.618524357804 13.9476922808253  L 15.0719883244895 13.9476922808253  Z M 13.1667329208052 13.9476922808253  L 13.1667329208052 12.1578880224392  L 14.7132689704133 12.1578880224392  L 14.7132689704133 13.9476922808253  L 13.1667329208052 13.9476922808253  Z " fill-rule="nonzero" fill="#aaaaaa" stroke="none" transform="matrix(1 0 0 1 141 312 )" />
  </g>
</svg>