<?xml version="1.0" encoding="utf-8"?>
<svg version="1.1" xmlns:xlink="http://www.w3.org/1999/xlink" width="15px" height="15px" xmlns="http://www.w3.org/2000/svg">
  <g transform="matrix(1 0 0 1 -3072 -603 )">
    <path d="M 14.7764423076923 13.7904283216783  L 8.45323426573427 7.46263111888112  L 14.7764423076923 1.13417832167832  C 14.8993715417285 1.01124908764212  14.968432466301 0.844521266909214  14.968432466301 0.670673076923077  C 14.968432466301 0.308652962060996  14.6749571777991 0.0151776735591481  14.3129370629371 0.0151776735591481  C 14.1390888729509 0.0151776735591481  13.972361052218 0.0842385981316267  13.8494318181818 0.207167832167832  L 7.52687937062937 6.53562062937063  L 1.20367132867133 0.206512237762238  C 1.08074209463512 0.0835830037260325  0.91401427390222 0.0145220791535543  0.740166083916082 0.0145220791535543  C 0.378145969054 0.0145220791535543  0.0846706805521541 0.307997367655401  0.0846706805521541 0.670017482517482  C 0.0846706805521541 0.84386567250362  0.153731605124632 1.01059349323652  0.276660839160837 1.13352272727273  L 6.59986888111888 7.46197552447552  L 0.276660839160837 13.7904283216783  C 0.153731605124633 13.9133575557145  0.0846706805521537 14.0800853764474  0.0846706805521537 14.2539335664336  C 0.0846706805521537 14.6159536812957  0.378145969054 14.9094289697975  0.740166083916082 14.9094289697975  C 0.914014273902218 14.9094289697975  1.08074209463512 14.840368045225  1.20367132867133 14.7174388111888  L 7.52687937062937 8.38898601398601  L 13.8494318181818 14.7174388111888  C 13.972361052218 14.840368045225  14.1390888729509 14.9094289697975  14.3129370629371 14.9094289697975  C 14.6749571777991 14.9094289697975  14.968432466301 14.6159536812957  14.968432466301 14.2539335664336  C 14.968432466301 14.0800853764474  14.8993715417285 13.9133575557145  14.7764423076923 13.7904283216783  Z " fill-rule="nonzero" fill="#ffffff" stroke="none" transform="matrix(1 0 0 1 3072 603 )" />
  </g>
</svg>