<?xml version="1.0" encoding="utf-8"?>
<svg version="1.1" xmlns:xlink="http://www.w3.org/1999/xlink" width="5px" height="11px" xmlns="http://www.w3.org/2000/svg">
  <g transform="matrix(1 0 0 1 -207 -13 )">
    <path d="M 0.0347222222222222 5.5  C 0.0347222222222222 5.40833333691406  0.0733024721498844 5.31666666308594  0.131172842520254 5.24791666308594  L 4.43287037037037 0.114583336914063  C 4.54861111111111 -0.0229166630859375  4.76080247214988 -0.0229166630859375  4.87654321289063 0.114583336914063  C 4.99228395363137 0.252083336914062  4.99228395363137 0.504166673828125  4.87654321289063 0.641666663085938  L 0.787037037037037 5.5  L 4.87654321289063 10.3583333369141  C 4.99228395363137 10.4958333369141  4.99228395363137 10.7479166738281  4.87654321289063 10.8854166630859  C 4.76080247214989 11.0229166630859  4.54861111111111 11.0229166630859  4.43287037037037 10.8854166630859  L 0.131172842520254 5.75208333691406  C 0.0733024721498841 5.68333333691406  0.0347222222222222 5.59166667382813  0.0347222222222222 5.5  Z " fill-rule="nonzero" fill="#d7d7d7" stroke="none" transform="matrix(1 0 0 1 207 13 )" />
  </g>
</svg>